Patient4_TMGait_0pt6_01_right_08_GRF.mot
version=1
nRows=39
nColumns=19
inDegrees=no
endheader
time	F1x	F1y	F1z	M1x	M1y	M1z	F2x	F2y	F2z	M2x	M2y	M2z	EC1x	EC1y	EC1z	EC2x	EC2y	EC2z
9.12	15.3931	742.3435	59.7418	-279.6422	-47.3967	665.897	-11.268	-1.0948	12.0211	-3.3343	-10.5708	0.58266	-0.0592	0.0182	-0.0073	-0.0462	0.0165	0.9585
9.1321	13.0506	733.6074	57.0665	-276.1091	-45.0588	652.1367	-7.8388	0.22431	8.1095	-1.8622	-7.0363	1.4573	-0.0592	0.0182	-0.0073	-0.0462	0.0165	0.9585
9.1443	11.5329	725.1749	54.7429	-272.6141	-42.7304	638.7842	-4.9416	1.3419	4.7501	-0.59861	-3.9968	2.1903	-0.0592	0.0182	-0.0073	-0.0462	0.0165	0.9585
9.1564	10.918	718.0805	52.9532	-269.5625	-40.5924	627.0295	-2.7407	2.2117	2.1574	0.38505	-1.6465	2.7539	-0.0592	0.0182	-0.0073	-0.0462	0.0165	0.9585
9.1686	11.0971	713.1005	51.7918	-267.2558	-38.789	617.6406	-1.2386	2.8567	0.33563	1.0917	0.017543	3.1755	-0.0592	0.0182	-0.0073	-0.0462	0.0165	0.9585
9.1807	11.9038	710.67	51.2425	-265.8612	-37.3671	610.968	-0.32917	3.2914	-0.81867	1.5527	1.0905	3.4497	-0.0592	0.0182	-0.0073	-0.0462	0.0165	0.9585
9.1929	13.1522	710.8677	51.2907	-265.4051	-36.3697	607.0019	0.11498	3.544	-1.4582	1.8126	1.7153	3.6	-0.0592	0.0182	-0.0073	-0.0462	0.0165	0.9585
9.205	14.6816	713.4728	51.8734	-265.8027	-35.7812	605.4431	0.24209	3.6036	-1.7299	1.9036	2.0184	3.6045	-0.0592	0.0182	-0.0073	-0.0462	0.0165	0.9585
9.2171	16.3641	718.0464	52.9392	-266.8834	-35.5876	605.8236	0.16486	3.4392	-1.7632	1.8418	2.1095	3.4265	-0.0592	0.0182	-0.0073	-0.0462	0.0165	0.9585
9.2293	18.1301	724.0202	54.3927	-268.4336	-35.7192	607.5775	-0.011994	2.9844	-1.6623	1.6247	2.0725	2.9775	-0.0592	0.0182	-0.0073	-0.0462	0.0165	0.9585
9.2414	19.9595	730.7888	56.1504	-270.2275	-36.1046	610.1301	-0.21824	2.1455	-1.5019	1.2322	1.9693	2.1339	-0.0592	0.0182	-0.0073	-0.0462	0.0165	0.9585
9.2536	21.9014	737.7726	58.1145	-272.0553	-36.639	612.9319	-0.38503	0.79877	-1.3224	0.62817	1.8238	0.74139	-0.0592	0.0182	-0.0073	-0.0462	0.0165	0.9585
9.2657	24.0233	744.4688	60.1987	-273.7357	-37.2204	615.5107	-0.45267	-1.1587	-1.1406	-0.22231	1.6297	-1.3196	-0.0592	0.0182	-0.0073	-0.0462	0.0165	0.9585
9.2779	26.3906	750.4488	62.32	-275.1141	-37.7497	617.4746	-0.35409	-3.7608	-0.95501	-1.3288	1.3595	-4.0887	-0.0592	0.0182	-0.0073	-0.0462	0.0165	0.9585
9.29	29.0461	755.3435	64.4082	-276.0526	-38.1487	618.5166	-0.013548	-6.8958	-0.75497	-2.6411	0.97539	-7.4429	-0.0592	0.0182	-0.0073	-0.0462	0.0165	0.9585
9.3021	31.9903	758.7873	66.4122	-276.4108	-38.3737	618.3522	0.64354	-10.1953	-0.52367	-4.0053	0.43198	-10.9807	-0.0592	0.0182	-0.0073	-0.0462	0.0165	0.9585
9.3143	35.1703	760.4065	68.295	-276.0407	-38.4113	616.708	1.6849	-12.9356	-0.24629	-5.1216	-0.30928	-13.9252	-0.0592	0.0182	-0.0073	-0.0462	0.0165	0.9585
9.3264	38.5143	759.8657	70.0226	-274.8095	-38.2623	613.3534	3.1239	-13.9062	0.092247	-5.4975	-1.2644	-14.9707	-0.0592	0.0182	-0.0073	-0.0462	0.0165	0.9585
9.3386	41.9071	756.8971	71.5355	-272.6162	-37.9266	608.1227	4.9198	-11.3165	0.49642	-4.4087	-2.4111	-12.1993	-0.0592	0.0182	-0.0073	-0.0462	0.0165	0.9585
9.3507	45.2218	751.2394	72.74	-269.3777	-37.3878	600.8668	6.8786	-2.7713	0.93659	-0.89056	-3.6336	-3.0313	-0.0592	0.0182	-0.0073	-0.0462	0.0165	0.9585
9.3629	48.3361	742.5249	73.4843	-264.9917	-36.5885	591.372	8.6366	14.6192	1.35	6.2191	-4.7041	15.6298	-0.0592	0.0182	-0.0073	-0.0462	0.0165	0.9585
9.375	51.1346	730.1838	73.563	-259.3037	-35.4335	579.2603	9.551	43.9094	1.6009	18.1435	-5.2049	47.0617	-0.0592	0.0182	-0.0073	-0.0462	0.0165	0.9585
9.3871	53.4976	713.3953	72.725	-252.0864	-33.7948	563.9482	8.6574	87.6448	1.4914	35.897	-4.5239	93.9886	-0.0592	0.0182	-0.0073	-0.0462	0.0165	0.9585
9.3993	55.3086	691.0589	70.7117	-243.0262	-31.5358	544.6127	4.5893	146.8841	0.75611	59.8803	-1.8329	157.5466	-0.0592	0.0182	-0.0073	-0.0462	0.0165	0.9585
9.4114	56.4079	661.8483	67.3003	-231.7364	-28.5559	520.231	-3.9894	219.8836	-0.85231	89.357	3.6478	235.8431	-0.0592	0.0182	-0.0073	-0.0462	0.0165	0.9585
9.4236	56.5345	624.3915	62.3628	-217.8049	-24.8524	489.7295	-16.9897	301.2713	-3.7187	122.1076	12.2412	323.0378	-0.0592	0.0182	-0.0073	-0.0462	0.0165	0.9585
9.4357	55.3433	577.6476	55.9622	-200.9094	-20.5917	452.2893	-32.0726	382.7205	-8.4114	154.7253	23.558	409.9608	-0.0592	0.0182	-0.0073	-0.0462	0.0165	0.9585
9.4479	52.4765	521.4927	48.4064	-181.0063	-16.1217	407.8145	-46.43	456.4158	-15.0913	184.0413	36.547	487.8922	-0.0592	0.0182	-0.0073	-0.0462	0.0165	0.9585
9.46	47.7351	457.1648	40.2711	-158.4773	-11.9232	357.2532	-58.0172	518.4461	-23.0109	208.5022	49.5717	552.319	-0.0592	0.0182	-0.0073	-0.0462	0.0165	0.9585
9.4721	41.2017	387.2283	32.2395	-134.1401	-8.449	302.5623	-65.9517	568.7961	-31.235	228.1397	61.263	603.1745	-0.0592	0.0182	-0.0073	-0.0462	0.0165	0.9585
9.4843	33.2325	315.2489	24.8853	-109.1607	-5.9826	246.4577	-70.0924	609.3593	-38.7774	243.7738	70.5599	642.5628	-0.0592	0.0182	-0.0073	-0.0462	0.0165	0.9585
9.4964	24.4406	245.28	18.5563	-84.8963	-4.5594	192.0189	-70.9334	642.4196	-45.1739	256.351	77.195	673.1299	-0.0592	0.0182	-0.0073	-0.0462	0.0165	0.9585
9.5086	15.6782	181.1942	13.3937	-62.6675	-3.9902	142.1879	-69.1728	669.8547	-50.1845	266.6405	81.2523	697.0566	-0.0592	0.0182	-0.0073	-0.0462	0.0165	0.9585
9.5207	7.883	125.9445	9.3403	-43.501	-3.8936	99.2028	-65.6661	692.9991	-54.0487	275.1545	83.3468	716.0277	-0.0592	0.0182	-0.0073	-0.0462	0.0165	0.9585
9.5329	1.7911	81.0655	6.2395	-27.942	-3.8811	64.2191	-61.142	712.5742	-56.9996	282.1576	84.0501	731.0449	-0.0592	0.0182	-0.0073	-0.0462	0.0165	0.9585
9.545	-2.2749	46.7973	3.8928	-16.0782	-3.6761	37.4289	-56.2671	728.8691	-59.3823	287.7326	84.0023	742.6793	-0.0592	0.0182	-0.0073	-0.0462	0.0165	0.9585
9.5571	-4.3529	22.3876	2.1482	-7.6452	-3.1806	18.2611	-51.5734	741.8529	-61.3652	291.8557	83.6116	751.1012	-0.0592	0.0182	-0.0073	-0.0462	0.0165	0.9585
9.5693	-4.9142	6.5009	0.89832	-2.1717	-2.4818	5.7125	-47.4863	751.3905	-63.1117	294.4697	83.2233	756.347	-0.0592	0.0182	-0.0073	-0.0462	0.0165	0.9585
9.5814	-4.5758	-2.5828	0.11871	0.94525	-1.7929	-1.5225	-44.2155	757.405	-64.5425	295.5673	82.8557	758.4367	-0.0592	0.0182	-0.0073	-0.0462	0.0165	0.9585
